<svg width="24" height="24" viewBox="0 0 24 24" fill="none" xmlns="http://www.w3.org/2000/svg">
<g clip-path="url(#clip0)">
<path d="M18.6582 6.98635C18.3081 7.03539 18 7.32526 18 7.74026V11H13C12.8675 10.9982 12.7359 11.0226 12.613 11.072C12.49 11.1215 12.3781 11.1948 12.2837 11.2879C12.1893 11.3809 12.1144 11.4918 12.0632 11.614C12.0121 11.7363 11.9858 11.8675 11.9858 12C11.9858 12.1325 12.0121 12.2638 12.0632 12.386C12.1144 12.5083 12.1893 12.6191 12.2837 12.7122C12.3781 12.8052 12.49 12.8786 12.613 12.928C12.7359 12.9774 12.8675 13.0019 13 13H18V16.2598C18 16.9228 18.7894 17.2674 19.2754 16.8164L23.707 12.7071C24.098 12.3161 24.098 11.683 23.707 11.293L19.2754 7.18362C19.0931 7.01449 18.8683 6.95693 18.6582 6.98635ZM1 11C0.734784 11 0.48043 11.1054 0.292893 11.2929C0.105357 11.4805 0 11.7348 0 12C0 12.2652 0.105357 12.5196 0.292893 12.7071C0.48043 12.8947 0.734784 13 1 13C1.26522 13 1.51957 12.8947 1.70711 12.7071C1.89464 12.5196 2 12.2652 2 12C2 11.7348 1.89464 11.4805 1.70711 11.2929C1.51957 11.1054 1.26522 11 1 11ZM5 11C4.73478 11 4.48043 11.1054 4.29289 11.2929C4.10536 11.4805 4 11.7348 4 12C4 12.2652 4.10536 12.5196 4.29289 12.7071C4.48043 12.8947 4.73478 13 5 13C5.26522 13 5.51957 12.8947 5.70711 12.7071C5.89464 12.5196 6 12.2652 6 12C6 11.7348 5.89464 11.4805 5.70711 11.2929C5.51957 11.1054 5.26522 11 5 11ZM9 11C8.73478 11 8.48043 11.1054 8.29289 11.2929C8.10536 11.4805 8 11.7348 8 12C8 12.2652 8.10536 12.5196 8.29289 12.7071C8.48043 12.8947 8.73478 13 9 13C9.26522 13 9.51957 12.8947 9.70711 12.7071C9.89464 12.5196 10 12.2652 10 12C10 11.7348 9.89464 11.4805 9.70711 11.2929C9.51957 11.1054 9.26522 11 9 11Z" fill="#7AAB3A"/>
</g>
<defs>
<clipPath id="clip0">
<rect width="24" height="24" fill="white"/>
</clipPath>
</defs>
</svg>
